<?xml version="1.0" encoding="UTF-8" standalone="no"?>
<svg
   xmlns:dc="http://purl.org/dc/elements/1.1/"
   xmlns:cc="http://creativecommons.org/ns#"
   xmlns:rdf="http://www.w3.org/1999/02/22-rdf-syntax-ns#"
   xmlns:svg="http://www.w3.org/2000/svg"
   xmlns="http://www.w3.org/2000/svg"
   xmlns:sodipodi="http://sodipodi.sourceforge.net/DTD/sodipodi-0.dtd"
   xmlns:inkscape="http://www.inkscape.org/namespaces/inkscape"
   viewBox="0 0 512 512"
   version="1.1"
   id="svg4"
   sodipodi:docname="crosshairs.svg"
   inkscape:version="0.92.3 (2405546, 2018-03-11)">
  <metadata
     id="metadata10">
    <rdf:RDF>
      <cc:Work
         rdf:about="">
        <dc:format>image/svg+xml</dc:format>
        <dc:type
           rdf:resource="http://purl.org/dc/dcmitype/StillImage" />
      </cc:Work>
    </rdf:RDF>
  </metadata>
  <defs
     id="defs8" />
  <sodipodi:namedview
     pagecolor="#ffffff"
     bordercolor="#666666"
     borderopacity="1"
     objecttolerance="10"
     gridtolerance="10"
     guidetolerance="10"
     inkscape:pageopacity="0"
     inkscape:pageshadow="2"
     inkscape:window-width="2477"
     inkscape:window-height="1411"
     id="namedview6"
     showgrid="false"
     inkscape:zoom="1.3037281"
     inkscape:cx="342.84208"
     inkscape:cy="311.89185"
     inkscape:window-x="74"
     inkscape:window-y="-9"
     inkscape:window-maximized="1"
     inkscape:current-layer="svg4" />
  <path
     d="m 272.75,-16.302734 c -17.73067,2.223579 -37.4844,-4.130088 -53.71484,5.951172 -11.77454,9.1872051 -12.64668,25.791217 -10.96485,39.470703 C 120.37052,46.234135 46.673242,119.78011 29.089844,207.36523 c -2.743312,1.43056 -7.929906,-0.24922 -11.673828,0.28907 -12.4108185,-0.29157 -26.5924803,4.98675 -31.019532,17.61132 -5.44771,14.47803 -0.713462,30.13315 -2.740234,44.92774 -0.420252,13.01537 5.507531,28.17972 19.078125,32.06445 8.364134,3.16092 18.239396,1.44833 26.257813,2.16407 17.887449,87.63281 91.244152,161.72514 179.390622,178.49023 -2.01615,13.51315 -1.00959,30.12509 10.57031,39.27148 14.74127,10.41799 33.62179,3.88938 50.13868,6.11914 13.37632,0.84443 29.35661,-5.24014 33.2539,-19.25781 3.03356,-8.34553 1.4448,-17.35218 1.90821,-26.0039 87.78237,-17.76777 161.83562,-91.39443 178.74804,-179.41993 13.48566,2.01913 30.0587,0.97608 39.18164,-10.57421 10.41799,-14.74127 3.88938,-33.62179 6.11914,-50.13868 0.84445,-13.37591 -5.23928,-29.35231 -19.2539,-33.2539 -8.3452,-3.04544 -17.35745,-1.42199 -26.00781,-1.92188 C 465.29581,120.01191 391.82915,46.287182 303.94336,28.892578 c 1.28578,-13.804925 0.74028,-30.9533433 -11.80664,-39.71289 -5.63149,-3.895302 -12.58696,-5.625903 -19.38672,-5.482422 z M 304.11328,128.4082 c 35.72366,14.16691 65.95212,43.24264 79.17578,79.65625 -14.0228,-0.80766 -31.18516,-1.47133 -41.10742,10.38282 -10.13783,13.26925 -4.96913,30.92275 -6.42343,46.11267 -0.82082,13.18497 1.85382,29.53948 15.00351,35.92639 10.13106,5.16896 21.89003,3.88051 32.83398,3.46679 -14.08329,35.8873 -43.26414,66.09925 -79.66015,79.34766 0.80668,-14.02651 1.47489,-31.19366 -10.38282,-41.11914 -13.26925,-10.13783 -30.92275,-4.96913 -46.11267,-6.42343 -13.18497,-0.82082 -29.53948,1.85382 -35.92639,15.00351 -5.16896,10.13106 -3.88051,21.89003 -3.46679,32.83398 -35.8873,-14.08329 -66.09925,-43.26414 -79.34766,-79.66015 14.02651,0.80668 31.19366,1.47489 41.11914,-10.38282 10.13783,-13.26925 4.96913,-30.92275 6.42343,-46.11267 0.8311,-13.18898 -1.86929,-29.46284 -14.94491,-35.93225 -10.12051,-5.23936 -21.89371,-3.65874 -32.83594,-3.60742 14.24903,-36.05139 43.27042,-65.81961 79.73437,-79.38086 -0.45453,13.11046 -2.64532,29.31585 8.1875,39.27735 8.59556,8.57286 21.69901,9.94167 33.11524,7.92773 15.40512,0.22907 33.86677,3.37145 46.39062,-7.9668 10.14835,-10.33764 8.67026,-26.55586 8.22461,-39.34961 z m -51.8164,79.54492 c -31.06653,1.35786 -54.28016,38.56414 -40.6875,66.87305 11.10912,28.04072 51.74493,39.13839 74.63085,18.69531 21.84242,-17.11641 24.24897,-54.6468 2.34766,-72.73046 -9.71462,-9.01162 -23.07625,-13.69509 -36.29101,-12.8379 z"
     id="path2"
     inkscape:connector-curvature="0"
     inkscape:export-xdpi="45.119186"
     inkscape:export-ydpi="45.119186" />
  <path
     style="fill:#ffffff"
     d="m 273.20117,3.6953125 c -13.92295,1.73757 -28.55204,-2.0507539 -42.02344,1.9882813 -6.51333,7.0714352 -1.95343,17.4411532 -3.08398,25.9863282 0.003,4.810202 -0.42481,9.624294 -1.39844,14.33789 C 144.71929,56.427577 72.186917,119.90628 51.485102,200.02298 48.989633,209.13049 47.170504,218.3264 45.849609,227.58594 32.92021,229.95841 19.151177,224.94928 6.75,230.02148 c -5.770116,7.51405 -1.5145806,17.39807 -2.5722656,26.16016 0.3576951,8.49292 -2.648481,18.55147 2.78125,25.82813 8.7183066,4.82277 18.9525616,0.55267 28.3761206,1.97244 3.490259,0.5365 8.754348,-0.14731 10.814319,2.34365 10.692153,80.62979 72.637286,152.02413 151.351806,173.48409 9.90011,2.84054 19.9314,4.9007 30.08471,6.33849 2.37245,12.93008 -2.63667,26.69973 2.43554,39.10156 7.51405,5.77012 17.39807,1.51458 26.16016,2.57227 8.49292,-0.3577 18.55147,2.64848 25.82813,-2.78125 4.82277,-8.71831 0.55267,-18.95257 1.97244,-28.37612 0.5365,-3.49026 -0.14731,-8.75435 2.34365,-10.81432 80.6298,-10.69214 152.02415,-72.63726 173.48409,-151.35181 2.84054,-9.90011 4.9007,-19.9314 6.33849,-30.08471 12.93008,-2.37245 26.69973,2.63667 39.10156,-2.43554 5.77012,-7.51405 1.51458,-17.39807 2.57227,-26.16016 -0.3577,-8.49292 2.64848,-18.55147 -2.78125,-25.82813 -8.71831,-4.82277 -18.95257,-0.55267 -28.37612,-1.97244 -3.49026,-0.5365 -8.75435,0.14731 -10.81432,-2.34365 C 455.15844,145.04434 393.21332,73.649993 314.49877,52.190051 304.59801,49.349495 294.56618,47.28875 284.41211,45.851562 282.02043,32.851186 287.1388,18.916127 281.85352,6.5175781 279.5713,4.3386408 276.26418,3.6529797 273.20117,3.6953125 Z M 228,104.87305 c 0.95642,15.75716 -1.79874,31.9546 1.22852,47.38672 6.05295,7.03167 16.32295,2.4971 24.2871,3.62361 9.2807,-0.31798 19.56976,2.17737 28.06836,-2.26229 5.24365,-7.77975 1.26424,-17.58058 2.38477,-26.30467 -0.0758,-8.2509 0.0638,-16.51126 0.78711,-24.73439 61.937,10.80168 114.13904,63.05884 124.72852,125.05469 -16.70137,1.98137 -33.76786,-2.07381 -50.1836,1.89844 -6.62525,6.86624 -1.95864,16.70817 -3.19179,25.11132 0.34922,8.87066 -2.17337,18.86171 2.26992,26.9375 7.77975,5.24365 17.58058,1.26424 26.30467,2.38477 8.2509,-0.0758 16.51126,0.0638 24.73439,0.78711 -10.80168,61.937 -63.05884,114.13904 -125.05469,124.72852 -1.98137,-16.70137 2.07381,-33.76786 -1.89844,-50.1836 -6.86624,-6.62525 -16.70817,-1.95864 -25.11132,-3.19179 -8.87066,0.34922 -18.86171,-2.17337 -26.9375,2.26992 -5.24365,7.77975 -1.26424,17.58058 -2.38477,26.30467 0.0758,8.2509 -0.0638,16.51126 -0.78711,24.73439 -61.937,-10.80168 -114.13904,-63.05884 -124.72852,-125.05469 16.70137,-1.98137 33.76786,2.07381 50.1836,-1.89844 6.62525,-6.86624 1.95864,-16.70817 3.19179,-25.11132 -0.34922,-8.87066 2.17337,-18.86171 -2.26992,-26.9375 -7.77975,-5.24365 -17.58058,-1.26424 -26.30467,-2.38477 -8.2509,0.0758 -16.51126,-0.0638 -24.73439,-0.78711 C 113.4006,165.17899 165.85461,112.91068 228,102.44336 c 0,0.8099 0,1.61979 0,2.42969 z m 27.06445,123.06836 c -20.33609,-0.28218 -34.87057,25.92562 -23.01562,42.79687 8.92726,14.77152 32.17724,18.29033 43.96679,4.91992 11.31772,-11.35215 10.6392,-32.47327 -2.9375,-41.82226 -5.10081,-3.93226 -11.56483,-6.10159 -18.01367,-5.89453 z"
     id="path2-9"
     inkscape:connector-curvature="0"
     inkscape:export-xdpi="45.119186"
     inkscape:export-ydpi="45.119186" />
</svg>
