<?xml version="1.0" encoding="UTF-8" standalone="no"?>
<!-- Created with Inkscape (http://www.inkscape.org/) -->

<svg
   xmlns:dc="http://purl.org/dc/elements/1.1/"
   xmlns:cc="http://creativecommons.org/ns#"
   xmlns:rdf="http://www.w3.org/1999/02/22-rdf-syntax-ns#"
   xmlns:svg="http://www.w3.org/2000/svg"
   xmlns="http://www.w3.org/2000/svg"
   xmlns:sodipodi="http://sodipodi.sourceforge.net/DTD/sodipodi-0.dtd"
   xmlns:inkscape="http://www.inkscape.org/namespaces/inkscape"
   width="512"
   height="512"
   viewBox="0 0 512.00001 512.00001"
   id="svg2"
   version="1.1"
   inkscape:version="0.91 r13725"
   sodipodi:docname="flag.svg"
   inkscape:export-filename="D:\Code\GestionOrganisation\Code\Game\SHSMobileGame\Assets\Textures\owner_flag_chart_fill.png"
   inkscape:export-xdpi="45"
   inkscape:export-ydpi="45">
  <defs
     id="defs4" />
  <sodipodi:namedview
     id="base"
     pagecolor="#ffffff"
     bordercolor="#666666"
     borderopacity="1.0"
     inkscape:pageopacity="0.0"
     inkscape:pageshadow="2"
     inkscape:zoom="5.6"
     inkscape:cx="442.00686"
     inkscape:cy="126.94256"
     inkscape:document-units="px"
     inkscape:current-layer="layer1"
     showgrid="false"
     inkscape:window-width="1982"
     inkscape:window-height="1129"
     inkscape:window-x="58"
     inkscape:window-y="-8"
     inkscape:window-maximized="1"
     units="px" />
  <metadata
     id="metadata7">
    <rdf:RDF>
      <cc:Work
         rdf:about="">
        <dc:format>image/svg+xml</dc:format>
        <dc:type
           rdf:resource="http://purl.org/dc/dcmitype/StillImage" />
        <dc:title />
      </cc:Work>
    </rdf:RDF>
  </metadata>
  <g
     inkscape:label="Calque 1"
     inkscape:groupmode="layer"
     id="layer1"
     transform="translate(0,-540.36216)">
    <path
       style="fill:#000000"
       d="m 253.55273,566.4082 c -82.83988,0.38714 -163.617889,49.42737 -201.267841,123.38044 -33.973975,64.72379 -35.122158,145.90542 -1.15145,210.88174 31.930174,62.90401 93.950921,109.95152 163.706651,121.83832 68.54846,12.5711 142.60848,-7.5284 194.23558,-54.66321 C 461.1031,921.5007 490.78083,850.76116 485.34866,781.07674 480.80164,711.59757 443.35822,644.64737 385.01425,606.18955 346.49749,580.19739 300.08295,565.79437 253.55273,566.4082 Z m 3.96094,85.02149 c 63.08238,-0.27004 123.2957,46.09292 138.57061,107.46077 14.65107,54.04301 -4.97506,116.58206 -49.87816,150.90664 -41.03272,32.88487 -100.60432,41.28849 -148.50067,19.25053 -45.22569,-19.65908 -79.2171,-63.81277 -85.23865,-112.76247 -7.08743,-49.10904 13.08499,-101.74868 52.38672,-132.51172 26.12348,-21.05628 59.1461,-32.90206 92.66015,-32.34375 z"
       id="path3349-0"
       inkscape:connector-curvature="0"
       inkscape:export-xdpi="50.110012"
       inkscape:export-ydpi="50.110012" />
    <path
       style="fill:#000000"
       d="m 319.31836,683.36914 c -10.52651,0.27523 -15.97507,10.91715 -24.08398,16.00977 -12.73992,10.48299 -28.46245,17.81777 -45.22478,17.73546 -21.35259,0.31508 -43.44583,3.02016 -61.33382,15.68446 -4.13465,2.75034 -7.90419,5.99284 -11.64648,9.24414 1.37239,-10.78542 -7.66919,-21.83762 -18.90039,-20.34766 -13.2303,0.68831 -19.9353,18.43257 -10.97657,27.8711 2.75264,3.21211 6.75964,5.19217 10.92774,5.74609 18.66832,50.80457 36.69679,101.93197 55.76562,152.53516 3.57423,3.28079 8.97617,0.13613 12.38672,-2.08789 3.20466,-5.36712 -2.95435,-11.15608 -3.64557,-16.57997 -2.3985,-6.59038 -4.79371,-13.18196 -7.19427,-19.7716 15.49039,-15.94181 35.50087,-28.6196 57.73047,-32.02734 20.23952,-1.74374 41.38571,-0.85404 59.79075,-10.61347 14.03533,-7.10821 26.77923,-17.83771 34.81472,-31.44708 4.30019,-10.69653 -4.21332,-20.94966 -6.59232,-31.0238 -9.05495,-24.21297 -17.26893,-48.79394 -26.81003,-72.79456 -3.07543,-5.23254 -9.1003,-8.36457 -15.00781,-8.13281 z"
       id="path3348"
       inkscape:export-xdpi="50.110012"
       inkscape:export-ydpi="50.110012" />
    <path
       style="fill:#ffffff"
       d="m 321.78516,699.5918 c 10.87083,29.88397 21.73854,59.76908 32.61132,89.65234 -13.34333,19.40022 -36.22967,31.40711 -59.74023,31.83398 -17.35058,0.42541 -35.28032,1.64433 -50.82857,10.08417 -12.33691,5.94508 -24.38889,13.0584 -33.9976,22.94904 -10.86357,-29.86797 -21.72563,-59.73649 -32.5918,-89.60352 13.34359,-19.39997 36.22933,-31.40791 59.74024,-31.83398 18.00341,-0.5161 37.00376,-1.4955 52.63086,-11.61133 11.40508,-6.68252 21.76378,-14.92085 31.11132,-24.39844 0.35482,0.97591 0.70964,1.95183 1.06446,2.92774 z"
       id="path3338"
       inkscape:export-xdpi="50.110012"
       inkscape:export-ydpi="50.110012" />
    <path
       style="fill:#ffffff"
       d="M 256.41016 36 A 220 220 0 0 0 114.58594 87.470703 A 220 220 0 0 0 87.470703 397.41406 A 220 220 0 0 0 397.41406 424.5293 A 220 220 0 0 0 424.5293 114.58594 A 220 220 0 0 0 256.41016 36 z M 256.28906 101 A 155 155 0 0 1 374.73633 156.36719 A 155 155 0 0 1 355.63281 374.73633 A 155 155 0 0 1 137.26367 355.63281 A 155 155 0 0 1 156.36719 137.26367 A 155 155 0 0 1 256.28906 101 z "
       id="path3349"
       transform="translate(0,540.36216)"
       inkscape:export-xdpi="52.360001"
       inkscape:export-ydpi="52.360001" />
  </g>
</svg>
