<?xml version="1.0" encoding="UTF-8" standalone="no"?>
<svg
   xmlns:dc="http://purl.org/dc/elements/1.1/"
   xmlns:cc="http://creativecommons.org/ns#"
   xmlns:rdf="http://www.w3.org/1999/02/22-rdf-syntax-ns#"
   xmlns:svg="http://www.w3.org/2000/svg"
   xmlns="http://www.w3.org/2000/svg"
   xmlns:sodipodi="http://sodipodi.sourceforge.net/DTD/sodipodi-0.dtd"
   xmlns:inkscape="http://www.inkscape.org/namespaces/inkscape"
   viewBox="0 0 448 512"
   version="1.1"
   id="svg4"
   sodipodi:docname="plus.svg"
   inkscape:version="0.92.3 (2405546, 2018-03-11)"
   inkscape:export-filename="D:\Code\GestionOrganisation\Code\Game\SHSMobileGame\Assets\Textures\bolt.png"
   inkscape:export-xdpi="24"
   inkscape:export-ydpi="24">
  <metadata
     id="metadata10">
    <rdf:RDF>
      <cc:Work
         rdf:about="">
        <dc:format>image/svg+xml</dc:format>
        <dc:type
           rdf:resource="http://purl.org/dc/dcmitype/StillImage" />
        <dc:title></dc:title>
      </cc:Work>
    </rdf:RDF>
  </metadata>
  <defs
     id="defs8" />
  <sodipodi:namedview
     pagecolor="#ffffff"
     bordercolor="#666666"
     borderopacity="1"
     objecttolerance="10"
     gridtolerance="10"
     guidetolerance="10"
     inkscape:pageopacity="0"
     inkscape:pageshadow="2"
     inkscape:window-width="2477"
     inkscape:window-height="1411"
     id="namedview6"
     showgrid="false"
     inkscape:zoom="1.3037281"
     inkscape:cx="416.1891"
     inkscape:cy="237.39172"
     inkscape:window-x="74"
     inkscape:window-y="-9"
     inkscape:window-maximized="1"
     inkscape:current-layer="svg4" />
  <path
     inkscape:export-xdpi="25.982145"
     inkscape:export-ydpi="25.982145"
     d="m 259.36719,3.5273438 c -32.05791,3.2783928 -66.0846,-5.1692346 -97.24805,6.3789062 -21.51044,10.256438 -31.46139,36.062094 -28.74915,58.811779 1.34697,31.025004 -0.26268,62.309061 0.55384,93.360091 0.12324,1.64575 0.85705,5.51387 -2.18164,3.96094 C 89.663778,166.52754 47.171971,162.9649 5.4031271,169.10263 -19.531619,178.50231 -32.97381,207.90647 -27.75,233.35742 c 1.074024,29.03369 -5.113721,59.7959 6.886719,87.39844 12.3806995,20.68104 38.756985,29.2612 61.759765,25.44336 31.044922,0 62.089846,0 93.134766,0 0.41013,42.44073 -2.78631,85.22854 2.71304,127.41663 8.98681,25.5422 38.79671,39.42886 64.61256,34.13556 28.91318,-1.08909 59.91207,5.13157 87.44198,-6.90766 20.66113,-12.42475 29.20514,-38.71997 25.40039,-61.72852 0,-31.04882 0,-62.09765 0,-93.14648 42.44073,-0.41013 85.22854,2.78631 127.41663,-2.71304 25.5422,-8.98681 39.42886,-38.79671 34.13556,-64.61256 -1.08909,-28.91318 5.13157,-59.91207 -6.90766,-87.44198 -12.42475,-20.66113 -38.71997,-29.20514 -61.72852,-25.40039 -31.06836,0 -62.13671,0 -93.20507,0 -0.41201,-42.94487 3.24882,-86.226016 -3.20313,-128.890624 C 302.9354,16.359778 280.946,3.2426983 259.36719,3.5273438 Z"
     id="path2"
     inkscape:connector-curvature="0" />
  <path
     inkscape:export-xdpi="25.982145"
     inkscape:export-ydpi="25.982145"
     style="fill:#ffffff"
     d="m 273.52734,39.177734 c -32.01199,4.240594 -65.15441,-4.393848 -96.25586,4.738282 -9.76439,7.051972 -7.24339,20.879183 -7.32855,31.292967 -0.0275,42.210307 -0.0735,84.420587 -0.12848,126.630857 -53.56469,0.90588 -107.266276,-2.55019 -160.6640594,2.65235 -0.7458602,32.77121 -3.5044235,65.94877 1.8867184,98.36133 2.592152,6.28227 9.944945,8.0609 16.026784,6.79734 47.112746,1.29911 94.421827,-0.0267 141.432197,0.33742 3.80402,2.95275 -0.0405,8.74002 1.47461,12.63672 0.28998,49.40753 -2.2275,99.01691 2.45508,148.20508 33.56618,0.86537 67.50388,3.41024 100.77344,-1.9961 7.26136,-4.17371 3.21121,-13.62368 4.53711,-20.13281 1.13616,-44.83775 -0.0133,-89.80902 0.17773,-134.58008 -1.82781,-4.0523 3.46716,-5.18085 6.28321,-3.8789 51.50695,-0.92925 103.34952,2.24316 154.66015,-2.57813 0.8201,-33.94959 3.45925,-68.445 -2.1914,-102.0039 -3.62611,-5.71895 -11.36844,-1.88197 -16.7534,-3.29853 -45.8848,-1.34729 -92.01869,-0.0457 -137.85989,-0.24835 -2.86112,1.47533 -5.62368,-2.01425 -3.97851,-4.60547 -0.66071,-52.85183 2.80371,-105.941717 -3.16406,-158.515622 l -0.99112,0.132988 z"
     id="path2-7"
     inkscape:connector-curvature="0" />
</svg>
